{"accessors" : [{"bufferView" : 0, "byteOffset" : 0, "componentType" : 5123, "count" : 36672, "type" : "SCALAR", "max" : [6433], "min" : [0]}, {"bufferView" : 1, "byteOffset" : 0, "componentType" : 5126, "count" : 6434, "type" : "VEC3", "max" : [7.719299793243408, -1.4586999416351318, 11.022299766540527], "min" : [-7.716599941253662, -15.249300003051758, 0.050200000405311584], "name" : "POSITION"}, {"bufferView" : 1, "byteOffset" : 12, "componentType" : 5126, "count" : 6434, "type" : "VEC2", "max" : [0.4959999918937683, 0.31940001249313354], "min" : [0.008799999952316284, 0.037199974060058594], "name" : "TEXCOORD_0"}, {"bufferView" : 1, "byteOffset" : 20, "componentType" : 5126, "count" : 6434, "type" : "VEC3", "max" : [0.9999341368675232, 0.9996938705444336, 0.9997783899307251], "min" : [-0.9999445676803589, -0.9999691247940063, -0.9997246861457825], "name" : "NORMAL"}, {"bufferView" : 0, "byteOffset" : 73344, "componentType" : 5123, "count" : 31716, "type" : "SCALAR", "max" : [6095], "min" : [0]}, {"bufferView" : 2, "byteOffset" : 0, "componentType" : 5126, "count" : 6096, "type" : "VEC3", "max" : [4.750500202178955, -7.915800094604492, 7.824900150299072], "min" : [-4.74459981918335, -15.487700462341309, 5.610199928283691], "name" : "POSITION"}, {"bufferView" : 2, "byteOffset" : 12, "componentType" : 5126, "count" : 6096, "type" : "VEC2", "max" : [0.9871000051498413, 0.3985999822616577], "min" : [0.5001999735832214, 0.008000016212463379], "name" : "TEXCOORD_0"}, {"bufferView" : 2, "byteOffset" : 20, "componentType" : 5126, "count" : 6096, "type" : "VEC3", "max" : [0.9999806880950928, 0.9996180534362793, 0.9995198845863342], "min" : [-0.9999806880950928, -0.9999316930770874, -0.9996604919433594], "name" : "NORMAL"}, {"bufferView" : 0, "byteOffset" : 136776, "componentType" : 5123, "count" : 26028, "type" : "SCALAR", "max" : [5076], "min" : [0]}, {"bufferView" : 3, "byteOffset" : 0, "componentType" : 5126, "count" : 5077, "type" : "VEC3", "max" : [4.439499855041504, -8.035900115966797, 6.317699909210205], "min" : [-4.439499855041504, -15.178299903869629, 3.964400053024292], "name" : "POSITION"}, {"bufferView" : 3, "byteOffset" : 12, "componentType" : 5126, "count" : 5077, "type" : "VEC2", "max" : [0.98580002784729, 0.3985999822616577], "min" : [0.5001999735832214, 0.00959998369216919], "name" : "TEXCOORD_0"}, {"bufferView" : 3, "byteOffset" : 20, "componentType" : 5126, "count" : 5077, "type" : "VEC3", "max" : [0.9999801516532898, 0.9986952543258667, 0.9998347759246826], "min" : [-0.9999801516532898, -0.9991998672485352, -0.9999826550483704], "name" : "NORMAL"}, {"bufferView" : 0, "byteOffset" : 188832, "componentType" : 5123, "count" : 145632, "type" : "SCALAR", "max" : [25074], "min" : [0]}, {"bufferView" : 4, "byteOffset" : 0, "componentType" : 5126, "count" : 25075, "type" : "VEC3", "max" : [9.919899940490723, 13.964300155639648, 27.575899124145508], "min" : [-9.92039966583252, -15.306300163269043, 6.508299827575684], "name" : "POSITION"}, {"bufferView" : 4, "byteOffset" : 12, "componentType" : 5126, "count" : 25075, "type" : "VEC2", "max" : [0.9822999835014343, 0.9822999835014343], "min" : [0.01769999973475933, 0.3166000247001648], "name" : "TEXCOORD_0"}, {"bufferView" : 4, "byteOffset" : 20, "componentType" : 5126, "count" : 25075, "type" : "VEC3", "max" : [1.000003457069397, 0.999992847442627, 0.9998918771743774], "min" : [-0.9999984502792358, -1.0000026226043701, -1.000002384185791], "name" : "NORMAL"}], "asset" : {"generator" : "Aspose.3D 24.4.1", "version" : "2.0"}, "buffers" : [{"uri" : "data:application/octet-stream;base64,", "byteLength" : 1845940}], "bufferViews" : [{"buffer" : 0, "byteOffset" : 0, "byteLength" : 480096, "target" : 34963}, {"buffer" : 0, "byteOffset" : 480100, "byteLength" : 205888, "byteStride" : 32, "target" : 34962}, {"buffer" : 0, "byteOffset" : 685992, "byteLength" : 195072, "byteStride" : 32, "target" : 34962}, {"buffer" : 0, "byteOffset" : 881068, "byteLength" : 162464, "byteStride" : 32, "target" : 34962}, {"buffer" : 0, "byteOffset" : 1043536, "byteLength" : 802400, "byteStride" : 32, "target" : 34962}], "meshes" : [{"primitives" : [{"attributes" : {"POSITION" : 1, "TEXCOORD_0" : 2, "NORMAL" : 3}, "indices" : 0, "mode" : 4}], "name" : ""}, {"primitives" : [{"attributes" : {"POSITION" : 5, "TEXCOORD_0" : 6, "NORMAL" : 7}, "indices" : 4, "mode" : 4}], "name" : ""}, {"primitives" : [{"attributes" : {"POSITION" : 9, "TEXCOORD_0" : 10, "NORMAL" : 11}, "indices" : 8, "mode" : 4}], "name" : ""}, {"primitives" : [{"attributes" : {"POSITION" : 13, "TEXCOORD_0" : 14, "NORMAL" : 15}, "indices" : 12, "mode" : 4}], "name" : ""}], "nodes" : [{"mesh" : 0, "name" : "12140_Skull_v3_jaw"}, {"mesh" : 1, "name" : "12140_Skull_v3_teeth"}, {"mesh" : 2, "name" : "12140_Skull_v3_teeth_lower"}, {"mesh" : 3, "name" : "12140_Skull_v3"}], "scene" : 0, "scenes" : [{"nodes" : [0, 1, 2, 3]}]}